<?xml version="1.0" encoding="UTF-8"?>
<svg width="128px" height="129px" viewBox="0 0 128 129" version="1.1" xmlns="http://www.w3.org/2000/svg" xmlns:xlink="http://www.w3.org/1999/xlink">
    <!-- Generator: Sketch 51.3 (57544) - http://www.bohemiancoding.com/sketch -->
    <title>shopping-cart</title>
    <desc>Created with Sketch.</desc>
    <defs></defs>
    <g id="Cart" stroke="none" stroke-width="1" fill="none" fill-rule="evenodd" opacity="0.113113839">
        <g id="Cart-Mob-Empty-1" transform="translate(-86.000000, -176.000000)" fill="#000000" fill-rule="nonzero">
            <g id="shopping-cart" transform="translate(86.000000, 176.000000)">
                <ellipse id="Oval" cx="95.5845" cy="118.465" rx="1.8135" ry="1.82410526"></ellipse>
                <ellipse id="Oval" cx="50.489" cy="118.465" rx="1.8135" ry="1.82410526"></ellipse>
                <path d="M99.66925,37.5445322 C98.6335,37.5445322 97.79425,38.3886901 97.79425,39.4304971 L97.79425,42.7950585 C97.79425,43.8368655 98.6335,44.6810234 99.66925,44.6810234 C100.70475,44.6810234 101.54425,43.8368655 101.54425,42.7950585 L101.54425,39.4304971 C101.54425,38.3889415 100.705,37.5445322 99.66925,37.5445322 Z" id="Shape"></path>
                <path d="M59.3685,37.5445322 C58.333,37.5445322 57.4935,38.3886901 57.4935,39.4304971 L57.4935,42.7950585 C57.4935,43.8368655 58.333,44.6810234 59.3685,44.6810234 C60.404,44.6810234 61.2435,43.8368655 61.2435,42.7950585 L61.2435,39.4304971 C61.2435,38.3889415 60.404,37.5445322 59.3685,37.5445322 Z" id="Shape"></path>
                <path d="M126.27025,27.9404444 C124.939,26.3305848 122.98275,25.3456082 120.9035,25.2379825 L31.53325,20.6178713 L30.56275,15.6766433 C30.362,14.6549532 29.37525,13.9895848 28.35975,14.1922632 C27.344,14.3941871 26.683,15.3859532 26.88375,16.4078947 L36.446,65.0894269 C36.446,65.0894269 36.446,65.0894269 36.446,65.0896784 L39.8135,82.232848 C40.28125,84.6131871 38.736,86.9324211 36.37,87.4029064 C36.0865,87.4592339 35.79875,87.4876491 35.5145,87.4876491 C35.25675,87.4876491 35.00325,87.4645146 34.75625,87.4202573 C34.727,87.4137193 34.69775,87.405924 34.6685,87.4011462 C32.9625,87.0596608 31.57675,85.7095614 31.229,83.9385146 L18.299,18.1133099 C17.8385,15.7694327 15.95475,13.9335088 13.61125,13.5444971 L7.415,12.5167719 C5.03475,12.1222281 3.4175,9.85303509 3.81,7.4588655 C4.00025,6.29861988 4.62825,5.28221053 5.57775,4.59722807 C6.5275,3.91224561 7.68525,3.64066667 8.83925,3.83278363 L15.03525,4.86050877 C18.23025,5.39008772 21.20225,7.02635088 23.40325,9.46804678 C24.09875,10.2397836 25.2845,10.2983743 26.05175,9.59830409 C26.81875,8.89873684 26.87675,7.70605263 26.18125,6.93431579 C23.4135,3.86497076 19.672,1.80675439 15.64525,1.13912281 L9.45025,0.111649123 C7.30825,-0.245175439 5.157,0.260011696 3.39275,1.53240936 C1.629,2.80430409 0.46325,4.69127485 0.11025,6.84554971 C-0.61875,11.292152 2.38475,15.5059006 6.80525,16.2389123 L13.00125,17.2666374 C13.81075,17.4006667 14.46125,18.0351053 14.62025,18.8448129 L27.55025,84.6697661 C28.03625,87.1444035 29.61475,89.1782281 31.717,90.3040234 L28.537,96.5490819 C26.736,100.086146 26.89125,104.221439 28.9515,107.610895 C31.012,111.001105 34.6005,113.025123 38.55075,113.025123 L41.82325,113.025123 C40.82575,114.632216 40.26525,116.509129 40.26525,118.465503 C40.26525,124.135971 44.85175,128.749041 50.48925,128.749041 C56.12675,128.749041 60.713,124.135971 60.713,118.465503 C60.713,116.509129 60.1525,114.632216 59.155,113.025123 L86.919,113.025123 C85.9215,114.632216 85.361,116.509129 85.361,118.465503 C85.361,124.135971 89.9475,128.749041 95.585,128.749041 C101.22225,128.749041 105.80875,124.135971 105.80875,118.465503 C105.80875,116.509129 105.24825,114.632216 104.25075,113.025123 L113.54075,113.025123 C118.02125,113.025123 121.66625,109.358807 121.66625,104.852357 C121.66625,100.345655 118.02125,96.6793392 113.54075,96.6793392 L108.04025,96.6793392 C107.0045,96.6793392 106.16525,97.5234971 106.16525,98.5653041 C106.16525,99.6071111 107.0045,100.451269 108.04025,100.451269 L113.54075,100.451269 C115.95325,100.451269 117.91625,102.425749 117.91625,104.852357 C117.91625,107.278965 115.95325,109.253193 113.54075,109.253193 L38.55075,109.253193 C35.917,109.253193 33.52475,107.903848 32.15075,105.643456 C30.777,103.383819 30.67375,100.626789 31.8745,98.2685789 L35.44425,91.2583216 C35.46775,91.2585731 35.491,91.2598304 35.51475,91.2598304 C36.04175,91.2598304 36.57375,91.2072749 37.0965,91.1036725 C40.45775,90.435538 42.92425,87.7584737 43.5115,84.5588713 L48.82825,84.2822632 L41.993,97.705807 C41.69525,98.2904561 41.72125,98.9890175 42.062,99.5492749 C42.4025,100.109532 43.00875,100.45152 43.66175,100.45152 L99.3235,100.45152 C100.35925,100.45152 101.1985,99.6073626 101.1985,98.5655556 C101.1985,97.5237485 100.35925,96.6795906 99.3235,96.6795906 L46.7285,96.6795906 L53.156,84.0572047 L115.56,80.8108304 C119.15875,80.6237427 122.1145,77.8800409 122.58825,74.2869006 L127.9345,33.7406667 C128.208,31.664345 127.6015,29.5503041 126.27025,27.9404444 Z M92.03,113.024871 L99.13925,113.024871 C100.95025,114.224848 102.05825,116.268982 102.05825,118.465251 C102.05825,122.055626 99.15425,124.97686 95.5845,124.97686 C92.01475,124.97686 89.1105,122.055877 89.1105,118.465251 C89.11075,116.268982 90.21875,114.224848 92.03,113.024871 Z M46.9345,113.024871 L54.04375,113.024871 C55.855,114.224848 56.963,116.268982 56.963,118.465251 C56.963,122.055626 54.05875,124.97686 50.48925,124.97686 C46.9195,124.97686 44.01525,122.055877 44.01525,118.465251 C44.01525,116.268982 45.12325,114.224848 46.9345,113.024871 Z M118.8705,73.7907661 C118.63425,75.5824327 117.16025,76.950386 115.366,77.0439298 L43.3525,80.7902105 L40.557,66.5577135 L119.92675,65.7811988 L118.8705,73.7907661 Z M124.21675,33.2445322 L120.42475,62.0039883 L39.8175,62.7925731 L32.28275,24.4335556 L120.711,29.004883 C121.763,29.0591988 122.71325,29.537731 123.38675,30.3522164 C124.0605,31.1669532 124.355,32.1941754 124.21675,33.2445322 Z" id="Shape"></path>
                <path d="M85.7323482,45.2244671 C84.9518482,44.5399876 83.7673482,44.6219642 83.0868482,45.40728 C82.1025982,46.5433853 80.6813482,47.1946718 79.1875982,47.1946718 C77.6938482,47.1946718 76.2728482,46.5431338 75.2885982,45.40728 C74.6078482,44.6222157 73.4235982,44.5404905 72.6430982,45.2244671 C71.8625982,45.9089467 71.7810982,47.1001221 72.4613482,47.8854379 C74.1580982,49.8435724 76.6095982,50.9666016 79.1873482,50.9666016 C81.7655982,50.9666016 84.2168482,49.8435724 85.9135982,47.8854379 C86.5945982,47.1001221 86.5130982,45.9086952 85.7323482,45.2244671 Z" id="Shape" transform="translate(79.187776, 47.863418) scale(1, -1) translate(-79.187776, -47.863418) "></path>
            </g>
        </g>
    </g>
</svg>